/* XPM */
static char *wall_jdid1724681466[] = {
/* columns rows colors chars-per-pixel */
"64 64 131 2 ",
"   c #010101",
".  c #070A06",
"X  c #0A050A",
"o  c #0A0F0A",
"O  c #0D120D",
"+  c #10150F",
"@  c #151E0D",
"#  c #161516",
"$  c #181617",
"%  c #131B12",
"&  c #181C17",
"*  c #191719",
"=  c #1C1C1B",
"-  c #201C1E",
";  c #17200D",
":  c #19220F",
">  c #152313",
",  c #1C2514",
"<  c #1C2914",
"1  c #1C231B",
"2  c #1B2A19",
"3  c #1F351C",
"4  c #212C16",
"5  c #21241D",
"6  c #222C19",
"7  c #273717",
"8  c #23331A",
"9  c #29361C",
"0  c #213C1E",
"q  c #2D3B1D",
"w  c #303F1E",
"e  c #221F21",
"r  c #252223",
"t  c #282527",
"y  c #252B22",
"u  c #292926",
"i  c #2A2729",
"p  c #2D2A2B",
"a  c #312E2C",
"s  c #273225",
"d  c #253F22",
"f  c #2C3C24",
"g  c #2D302B",
"h  c #2D3C2B",
"j  c #313D22",
"k  c #33322C",
"l  c #38362F",
"z  c #363F28",
"x  c #332D31",
"c  c #3A2D39",
"v  c #363432",
"b  c #393535",
"n  c #363B33",
"m  c #3B3B34",
"M  c #3B3539",
"N  c #3E3B3B",
"B  c #423D3E",
"V  c #30411F",
"C  c #274024",
"Z  c #2A4226",
"A  c #2D442A",
"S  c #2E482A",
"D  c #334422",
"F  c #364925",
"G  c #384927",
"H  c #32432D",
"J  c #3B462B",
"K  c #344A2C",
"L  c #3C4A2B",
"P  c #3D502B",
"I  c #344332",
"U  c #364D32",
"Y  c #3E4930",
"T  c #3D443A",
"R  c #404D2F",
"E  c #40502F",
"W  c #424F31",
"Q  c #44433D",
"!  c #48463D",
"~  c #454B3C",
"^  c #445532",
"/  c #435831",
"(  c #48523B",
")  c #3F3D40",
"_  c #433D40",
"`  c #493F46",
"'  c #454242",
"]  c #494346",
"[  c #4C4D43",
"{  c #4D474A",
"}  c #4E494C",
"|  c #504F44",
" . c #50464D",
".. c #514B4D",
"X. c #465741",
"o. c #535446",
"O. c #525349",
"+. c #5A564B",
"@. c #5C5A4D",
"#. c #4F4D50",
"$. c #544C51",
"%. c #594E55",
"&. c #5C4E59",
"*. c #565152",
"=. c #595256",
"-. c #5D5A53",
";. c #5A5358",
":. c #5F5C5D",
">. c #625C53",
",. c #665E59",
"<. c #5D6351",
"1. c #616057",
"2. c #65625C",
"3. c #68645F",
"4. c #6A6561",
"5. c #6D6A64",
"6. c #6E6D6A",
"7. c #716D69",
"8. c #777665",
"9. c #75746C",
"0. c #78756F",
"q. c #7E7C6B",
"w. c #7C7A71",
"e. c #7F797F",
"r. c #807C70",
"t. c #858172",
"y. c #898175",
"u. c #919377",
"i. c #96987D",
"p. c #9F9D85",
"a. c #A1A188",
/* pixels */
"7 7 7 7 7 7 D D P P D D P D P D D D D D 7 D D P P D P D D D D 7 7 7 7 D 7 D D P P P P P D P D 7 7 7 7 7 D 7 D P P P D P D D D D ",
"+.+.+.+.@.{ _ { #.:.:.:.:.#.#.#._ 9.9.@.{ _ d 7 P q.i.8.e.e.+.+.+.+.+.@.+.{ _ B _ _ { 2.2.e.e.2.e.2.2.+.{ _ C D P q.i.8.e.e.+.+.",
"..{ { { } ..{ B +.+.9.9.9.+.@.9.9.} { { _ { _ % D i.} } { { { +.+.@.} { { { { d { { ..{ { { { +.2.{ { { _ { _ % D i.} { { } +.} ",
"{ { { ....{ { { { { } { { { @.} } { { { { _ { i D 2.{ { { } } } } ..{ { { { { { { } { { { ..@.{ { { { { { _ { i 7 2.{ { { +.O.{ ",
"_ { B { { { { { { { { { { _ { _ { { { { { { { + D C B { { { =.d C _ { { { { { { { { { { { _ { B { { { { { { { % D d _ { { { =.d ",
"{ { { { { { { B { B { { { { { { { { { { { { Q % D B { { { { d d C C N { { { { { { B { { { { { { { { { { { { B % D _ { { =.d d d ",
"{ { C C B { { C { _ d d d { { { { { d d { { C % D _ C d { B i i t i C C { { _ C { B C C C { { { { { C C { { C   D _ d d d d d _ ",
"i i i i % i %     O o o o $ O $ # # $ # $ O O , 2 ; o o O o o $ o $ $ $ $ O O %     % % % i % i i i i i u %   D P   % % % i % i ",
"P D 7 7 7 7 V 8 8 ; ; @ @ , , @ , , @ @ , @ , 4 4 4 @ , @ @ : @ , , @ , ; : < 7 7 7 D 7 D D 7 D 7 7 7 7 D P P P P 7 D 7 D 7 D P ",
"+.+.{ B C P G 7 O.p a k u p u > $ r i r v v p v p Q Q b Q l b l t > > > r i 4 P P q.2.2.2.2.C t d d _ _ _ d d d { { { } @.+.+.+.",
"..{ ..{ B % D @.x p p v p i p p i * r v i i i i u u p i i i i a v i > r t p O D 9...{ { { { { C i _ { { { { _ d { { { { { { +.} ",
"{ { { { { i < Q p p b p i p u p p # > > n i i i i i i u i p a p i i u r p p O P 2.{ { +.{ { { B C { { { { _ { _ { { { { { @.} { ",
"C C B { B % , < a t p i i i i i i i i x r i i i i i p i p i i e i i > r x x r D 2...{ { { { { { { { { { _ { _ { { { _ _ { _ { C ",
"C { { B B % 8 2 a a t p r p i i i t x e i e r i i r i i i i > i i r 1 a x N % D Q { { { { { { { { { { { { { _ { { { _ { _ { _ B ",
"{ d B { d % 4 3 8 x v i p r i i p x > > r r $ i i > r a 1 2 u r r i 1 p M z 1 D d _ { d C d { { { { { { B { { { { _ { _ _ B C d ",
"i i i % % 7 D 8 % % + = * # o $ # # # # o # $ = # & % = # - & 5 , = = $ = X 9 K 8 % i % i i i i i i i % %   %     % % % % i % i ",
"7 7 7 7 7 7 D D 7 7 D D 7 D 7 D 7 D D D 9 z h ( L J F D Y W W @.+.R D L j J 9 U D C P P D L D 7 7 7 7 D 7 D 7 7 P D P D D D D D ",
"9.9.+...{ { +.{ +.+.+.:.:.,.#.:.#.#.I <.5.O.$.} U J W D a.r.w.2.;.,.,.>.>. .` ] -.*.O.} +.+.+.+.+.+.+.{ B C 7 P D #.i.i.2.2.2.2.",
"+.+...{ { { { C { { ..9.9.+.+.9.9.5.5.' ` { ` $.} 1 z a.;.%.%.=.=.>.%.%.&.%. ._ { ] ] { { { ;...{ { { } { B % D :.q.} { { { @.+.",
"} ..{ { { { { { { } ..{ } { +.#.;.} [ ] ] { $.] $.v L 5.%.$.%.=.%.%.=.;.=.$.#. .} { { } $.;.} } { } } { { { i P #.9.{ { { ..} } ",
"d _ { { { { { } { { { { { B B { ] } _ {  . .#.$.$.= j A ] %.%.%.%.%. .%.%.$. . .} d ` ` $. .} &.C C C B { _ % 7 { _ { { { ;.C C ",
"d d B { { { { { { _ { { { {  .B { } { } {  .#. .] 1 L ] %. . .%.%.=.=.=.%.$.$.#. .` `  .` %._ d B C { { _ _ % 7 _ { _ { { C C C ",
"i i C d { { Q d { B d d d { { { { } } } C f  .#.Z & J ` A A A  .;.;.K K ] %.$.A $.` $.` ` ` T { C { C _ { d % 7 C N { { _ i u t ",
"% i i i i % % %       + o o   + O *     O * * o + & 6 4 O + & 2 6 1 r = + - O O   % = = = x e b u i t u % % 7 7 % % i % % % i u ",
"D 7 7 7 7 7 D 7 D D 8 : < ; < 4 4 4 @ , ; > , @ , , 6 8 2 5 6 r t r 5 5 4 6 & 4 6 9 J J R J L G D 7 7 7 7 D 7 D 7 P P P P P D P ",
"+.+.+.+.+.@.{ _ d q 7 p @.o.o.! M m p p > t r e ! ' ' ' M M v u u u i p , > 1 i p f ^ ^ =.=.=.%.| #.#.) #.9.2.2._ C % q.e.} +.+.",
"@.} } { { { } { Q + < o.k k k k a l v p p , v Q t p p p p p p p p p u i i 1 r p 2 % ^ =.p.r.r.q.5.9.9.2.9.} } } { _ { { #.{ { { ",
"} { { { } } { { { - 4 k u k a p a a a a p p a v p p a p p p p p a u i p i p p a 2 $ L y.%.$.5.=.*.-.} } { { { { { { { { { { { +.",
"{ ;.=.d d d _ { _ O 2 l a p p a b , , p a a x p a p p a p p p r p e p p p p p x v & j I $. .%...$...{ { { =._ { { { { d Q _ { _ ",
"B C d B d { { _ _ O 9 b b a k p 2 2 2 2 i x a x x p p i p p p p p p i p p p x M M 1 F Q  .......} } { { =.B { _ { { { _ _ { _ { ",
"C C { d { d _ { C O q b M b p i - = - = 1 , p p t 1 p i 1 > , p p p p p > > x N C   F Q j  .......{ { ;.C d _ _ { { { B { _ _ _ ",
"% i u i i i i % % D P D % e t & # = % * = = = O O O     o O O * o * * * = = = $   K / . y p 1 k v N n i i i % i % %   % % % % i ",
"7 7 7 D 7 D D P P P P P F L ( L ^ D P L V P q V f q q q G 9 G G 9 G f 9 9 q F / P / / Z E G q L F L D D 7 D D P P D P D D D D 7 ",
"+.+.+.@.+.{ _ B _ _ { 2.2.e.7.7.7.5.$.S S S ] ] L / / t.4.4.4.4.h p C C ] ] ] Z A A ;.*.-.3.A v U X.9.+.{ _ C 7 P q.i.8.e.e.+.+.",
"+.+.} { { { { C { { } { } ;...$.$.>.5.*.S ] ] $., L w.%.} $.#. .#.Z p ` $.} $.$.] A $.*.*.$.$.S b ..{ { _ { B % D i.} { { } { +.",
"} ..{ { { { { { { } { { { =.@.*.-.*.$.O...{ $.) 6 ^ 4. .#.+. .#. .` Z $.$.$.#.] O.] $.*.O.$.$.] A ..{ { { _ { i D 2.{ { { { #.} ",
"C B { { { { { { } { { { { { $.*.*.+.$.} [ %.&.i H J 4.$.} } #. . .#. . .} $.` $.] $.$...{ ] ..{ { { { { { { { % D d B { { { ;.C ",
"C C B { { { { { { _ { { { { ..*.*.*.$.=.&.&.{ - J ' ' { %.{  . .$. .$.$.$.$.$...] $.#.$.] O.] { { ' { { { { _ % D _ { { { { C C ",
"i i C d { { B d { B C C 0 { ....$.%.A H %.%.H X J { H h A T h f  .#. .$.$.$.` $.$.$.$.{ } ] ] ] Q n C d { { d % D B d d { B y i ",
"% i i i i % % %     % % % p r v v x x v x 5 X L ( X 1 = 1 c u p p p p x x & 1   =     > & & & r y i i i u % % D P 7 % % % % % i ",
"D D 7 D 7 7 7 7 7 7 V 7 D V C R f j z j R ( ^ ^ ^ q J j J j ^ R z 9 7 f z L w G q q 6 4 6 , , @ @ , @ @ , @ , 6 6 6 ; , @ ; , ; ",
"] C d d B _ D P P r.3.2.2.3.d v K H ` ` ` H H A %.%.$.%.>.=.o.+.%.*.+.| ( ..` Z q E 4 a +.| v a i r i r v v p v p Q Q v Q k n v ",
"2.{ C B B { % D 9...{ { { { { T c { $.%. .%.` A %. .$... .+. . .=... . .[ .. .` & G x ] p i t p r $ r v p u i i u i p i p u i a ",
"{ { { B { _ % P 2.{ { +.{ { { Q n $.$. .%.` $.`  .$... . . . . .{ {  .....{ ....p ^ a Q x p p t i $ > > v p t p i i i i i u a i ",
"{ { d _ { _ i D 2...{ { { { { { .. ... .` %.` $.$. .{ ] { {  . .' { ]  .{ { ..` & f p t p x i p i i i x e p p t i p p i p i i r ",
"{ _ d { _ { % D B { { { { { { {  .{  . . . .`  .....` ` B  . . . .{ { { [ ] Q ] 1 j t p p x x i i i p r p e e p i e i i i i > i ",
"{ _ d B B C % D d B { d d d { { { B {  .`  .%. ...` } _ m z f d { { { { { ] ..C & j 1 i p c r i i x > > r r # i i > r p > > i i ",
"i i i % %   7 P D % i % i i i i p u u & = X = X   % % % % $ % % i + u p p k 1 1 j D $ = * e $ # # $ $ $ o # o o   . o # o # # # ",
", @ @ , @ , @ 4 4 4 4 6 < 4 , ; @ @ @ 4 @ 6 4 : j V E V V J 7 C q 7 D 7 9 f 9 J C Y Y O.O.[ 7 D 7 D D D D D 7 D 7 7 7 7 D D D D ",
"a k a p a i r i v v v p k a a a a a a u i 5 - 9 6  .u.u.-.[ @.-.>.0 i d Z { #.0.5.5.=.<.:.:.#.:.#.#._ 9.9.+.{ _ C 7 D 7 i.8.q.q.",
"k p u u p p i e i i i i i i a u i i i p i e * 6 N 8.! ! ' ' ' _ ' ] 0 i ] =.5.} $.O.} 9.9.+.+.9.9.9.9.} { { _ { B % 7 i.} { { { ",
"u i u p p i i i i i i i i a p p i i p p i i * 9 a ,.B _ _ Q _ N N T M d ....{ { } $.} { { { +...#.} } } { { { B { i D 2.{ { { +.",
"> i e i i i i i p > e r i r i a > > > e i 5 o : M B _ ' ' ' 3 h b M ' ] { { { { { { { { { B B { ' { B { { { { { { % 7 C ' { { { ",
"> i i i i i i i i e t i r i r > e > i i r u o < M { ) { { C s g v b _ { { { { { { _ { { { { { _ { { { { { { { { B % D B { { =.C ",
"r i > > r p i > i e i r e e > i > p > r i , + 4 9 ' { { B i i i i i d d { { B d { _ d d C { { { { { { { C d { { C % D B C C C C ",
"$ $ # # o # o o   o o o o * o $ # # # # o O : 7 % % i % % % i i % i i i i % % %       % % %   % % i     % i i % % 7 P V % % % t ",
"6 < < < , , ; , , , < , , , , , , @ @ ; ; 2 < C 7 P P P P P D P A 7 7 7 7 7 D 7 Z V 7 7 D 7 D D D D 7 D 7 7 D 7 D D P P D D P D ",
"_ N ] ] C d C _ _ L P P ..#.#.} #.#.} ) } 9.2.4.' C % q.e.} +.+.+.+.+.+.+.+.{ Q C D D Q i.i.i.9.2.2.{ ] C ) ) ) q.9.9.9.2.2.2.2.",
"i +.2.{ { C _ { C % P } i.q.9.9.2.9.9.2.9.{ } O.{ B { { } { { { +...} { { { ..{ _ % 7 q.+.+.+.{ { +.2.{ { d 2.q.] ] { { } { { B ",
"+.{ { { { ] { { C % D q.{ } 2.} } } } { } { { { { { { { { { { +...{ { { { ..{ { { i D +.{ +.{ ..+.{ { { { ] ] _ { B { { { { { i ",
"{ { { { { _ { { B % 7 C { _ { { { { { { { ;._ { { { { C _ _ { _ { ;.=.d C C B { _ % D +.O.} { } { { { { { _ d { d { { { C } C { ",
"{ { { { B { { { { i 7 0 ' { _ { { { { { =.B { _ { { { _ _ { _ { _ d d _ C { { B B % P { } } } { { B { { { d { _ { { { { { C { C ",
"C { { { { { { { { % 7 C C _ { _ { { { =.d d _ _ { { { B { B _ _ d d { d { d B { C % D _ } } { { C { { { B d _ i % d d B d { C C ",
"u i i O i i % %   7 7 7 % % % i % i i i i i % i % %   % % % % i % i i i i i i % % D P D % i % i i % i % % %   % % %   % % u % u "
};
