/* XPM */
static char *door_21724687442[] = {
/* columns rows colors chars-per-pixel */
"64 64 82 1 ",
"  c black",
". c #1A360D",
"X c #042110",
"o c #0B2D13",
"O c #00150E",
"+ c #00150A",
"@ c #08230D",
"# c #001A0E",
"$ c #00100A",
"% c #010905",
"& c #102106",
"* c #031408",
"= c #000C07",
"- c #031A0B",
"; c #122A09",
": c #000504",
"> c #001007",
", c #1C3205",
"< c #000704",
"1 c #002413",
"2 c #2A5D12",
"3 c #070E04",
"4 c #071B09",
"5 c #192603",
"6 c #020F08",
"7 c #124D1A",
"8 c #00110B",
"9 c #00160B",
"0 c #162E0A",
"q c #283F07",
"w c #061409",
"e c #030C06",
"r c #073A16",
"t c #0D1806",
"y c #000907",
"u c #0A260E",
"i c #001C11",
"p c #0F3D17",
"a c #121F0A",
"s c #224A10",
"d c #062E14",
"f c #002E13",
"g c #0A1102",
"h c #000C0B",
"j c #08190E",
"k c #041C0C",
"l c #03130C",
"z c #002411",
"x c #233505",
"c c #141C03",
"v c #000706",
"b c #020C07",
"n c #041008",
"m c #091405",
"M c #000A06",
"N c #000F09",
"B c #03190B",
"V c #001409",
"C c #112808",
"Z c #0D1C06",
"A c #08210C",
"S c #061709",
"D c #000B07",
"F c #142003",
"G c #000E07",
"H c #021108",
"J c #041207",
"K c #000805",
"L c #000A05",
"P c #020D06",
"I c #010A06",
"U c #0A1505",
"Y c #081105",
"T c #000605",
"R c #0F1903",
"E c #000D07",
"W c #000A07",
"Q c #030E07",
"! c #1B2F05",
"~ c #061609",
"^ c #0C1403",
"/ c #0D1B06",
/* pixels */
"                                                                ",
"...XXoooOOOXX+o@oXXoooX...+#+$$% oooO##XXO.&.*==O...X#OOOXX-#$XX",
";;--$+;;;$$$$;;;--;;;+;;;+++$$$: .;$$$++$$$;;>$=$;;--$$@@@--+---",
"$+++$$$;;;$$;;;+--;;++,;--+$$$$< .---@@@$$$--*=$$+++$$$$;;;$@@@$",
"--@@@$--;,$$,;+$$$$$$++$-*1O@@@< O$*2.;+++$$-**$@@@-$$$--;;;-;;;",
";--;;;--+;+$++$$$@@@---$$=OX-;;3 #+&..-$+@@@$**;;;---$$$--;,$$;;",
",$--;;;$$++$@@@$$+;;;-$+@44--$;3 X-5&--$--;;;=*;;$$@@@$$$--+$--;",
"$$$$$;,$$---@@--++-;;-$;;;--$$$3 X$++$$$$--;;>>+$$++;;;$$$+@@@-+",
"ooOOOO.OXXX###XXX#XXO##..###OOO6%7ooOOOOOOXXO89ooo##O..XXX...X#o",
";;;-$$$---+@@@$--$@@@++$$$+@@@$: .;$$---$$$@@4=+@@-$$$---$;;$$$$",
"O..XX##XXO...XOOOOO...XXOO...XX632OOXoooOOOO.00OOXoooXXooo##OOOO",
"##OXooo#OO..XO#XXXOO...OOO..OOX% 1OXXX...OOXX00O#...OXXO...OXXX#",
"o##...##OXXXOOoooXXOX.q#OOXXXOowerOXXOO...XXXO8OO..#OOO##...XXoo",
"O#...OOOOXXOO...#XXO##.OXOXX#..t%rO#oooX.qXXO8OOOXXoooO##O.qX...",
"XXq.OOOoooOO...XXOooo#OOXXOO...y:1O...XO#.#OOOuooOXX...OOOXXO..O",
"#X.XOOOO...Oq.XXOOO...OOoooOq.#y:1O..X#O##OO#...OOOXX...OOOOOO##",
"OOXX###OO..#XXX##OXX..O...OO.XXy:iOOOOOOOXXX..0Xooo#XX.qOOoooXX#",
"OOO###OXXX##XXO##OOXXXO..OOOOXX%epoOXXXOXXX#q.OXO...##O.##O...XX",
"Oooo#OOOXXXOoooOOOOOXXOOOOOOOOX6<a;.XX##oooO.OOOXX..##OO###O..XX",
"...XXXoooXXX#...OOO##oooOXXXOO#<<y.sXO#...OOOO##XXXOOOXoooXXXOOO",
"..XXX...O#oooO...O##...OXXXooo#=:yrdOO...OXXXOO#oooOOX...O#XXX##",
"OXXX...O###...O.q#X...OXXX##...::fpooOq.XOoooXOO#...XX..OOOOXXX#",
"oXX#q.XXX#OO..XXd##q.X#XXOO##..t:s..#X.XO...XXOOO#...XOO#oooOXoo",
"OO##OXXoooOO#XXd$OOOXXX##ooo##.g%s.##XXO#..OOoooXXO.qOOO...#O...",
"#oooOXX#...OXXrh8OOoooX##O...XX%:1OO##O###OOO#...OOO.XX...##...#",
"XX...###O...XdjuuX...OOOOOO..XX:%7ooOooo#OOOOXX..OOXXd#q.XXXq.OX",
"XXX..##OO#.qO.00XX..OOOO###OXXO%32.OXX;s.O###XX##OOXd+O.XXXOOOOO",
"OXXXOOOOOOXX..0kkO##XdXoooOOOOO%32#XXlz...O###OOOOo7j8OXXX#oooOO",
"OoooOOOoooOXq.88oooXr-...OXXX#O::1#XXz##.qXO@ooOOXda00OXXO##...O",
"OO...#XX...OXXk8#..sl0..OOOXoo#:%rOOpooOO-Xa..XXOOXk00.OOOOXX...",
"OOO...XXO..OOouu8#..8x.OOOO####<%1O...O#+za.;iXXoookk.q#oooXX#.q",
"OO##.qXO###O..08OO##8OOXXXOO#..3y1...XOhf+qa1OO...O8Xk.XX...OOO.",
"oo##XXOoooXX..9kkXOO88XXooo#O#.t31q.Xdl1O#;dXOO..OO89#OOXX..OXXX",
"...OOO...XXOO#kkXooo8kX...#OOO#3ci.#zlrOO-XXOO##XXX8Oooo#XXOXXXO",
"O..OOs..XXOOOOkX8O..0XX..#OoooOy3rXdhuooXXXOOoooXXO80..O##OXoooO",
"#XXX1,.XXOOOoou8OOO.00OOOO...##ewpXh00.OXXOO#X...O#00.XXOOO...O#",
"##Xdl0#OOOO...8OXXXO0qOOO...O##6t2.O0.OOOOoooXX...Ox.XXOOO...OOO",
"Ooo@kkOXXX...X89#XXXO0OOOq.OOO#%6s.#99XXX...OOOO.qOkkoooO#q.OXXX",
"XO..0XOoXOq.XXk8oooXkOOOO.OOXXowwi##9OOX...XXXO###Ok...OOXXXOOXX",
"XOO.00###O.OOXkOO...XOO#XXXOO..3yz#XXkOOq.#OXXXO###O0.OOOOXXXooo",
"O###0qO#XXXOoou8OO..8OOO#XXX...%vzoouOOOO###oooOOXXkOOOOOoooXO..",
"XO#XX0OXXX#OO.0.#XXXO##oooXXq.O:ydX...##OO##O...XXXOoooX...O##X.",
"ooXXkOXXX##OOO.0XXX#8O##...XXOO:bXXO0.#XXXOOOO..XXO0..XX..OOOXXX",
"...XOOoooOoooO9#XX#oooXX#...OOO:yz##OOO#XoooXXXOOO...##XXXOOXXX#",
"#..O9...OOO...X#OO...XXOOO.q##O:bXX##OOO...X#XXXOOq0X#OOXXoooXO#",
"OXXX...O###O..0XOq..XXOOOXXX#OO%%dooo#O...XXOOXXX#.XXXoooO#...OO",
"OOXXq.O#XXXO#.qXX..XXOooo#XXXOoenOO...Oq.##OOOOXX##OX...OOO#..XO",
"oo#XXXOXXXOOOO0XXO###...O##XX..3<OOO...OOOOXXXooo###O..OOOOXXX#o",
".OOOoooOOOO###OOOXXXO..OOOOO...%%XOOO.q##OXXX...XX##OOOO###OO#..",
"OOX...##OoooXX#oooXOOOOOO=1-q.O:eoo=1$.###XX...#oooOOoooO##XX...",
"OOO..X##...XX###...O#XXXO=++XXX33.X*-$OXXXOOq.#...XO...OOOXXXq.O",
"###OXXX...XXOO##O...O#XXX=4ooXX33XX*4ooOXXXOOOO..OO...XoooXX#OOO",
"XoooOXX..##OoooXXO.qOO#XXXO...O:vXX...##OXoooOXXXOOq.XOO...OOOXX",
"iisssiiiiiisssddzziiddpppdii.s.::Os.sdziiid.s.dXiid.dOiOz.ssippp",
"                               %b:                              ",
"m  bmg nn  Mb% Mv  bm3 vM  vv% bv  MM% nn  vv3 vv  nne Mb  Mb% m",
"NNNNBBVBCZCNNASADNDVFCDDGSSSBHBSASBNNNCCCNBBBVCVNNNNCCCNNHAAANDN",
"JJJKKLLPIUUKUUUKPPPKULLKUYULPPUUYPPPLUUUTKKPPPLLKKKLLUULKUUUKKKK",
"UYKKKKLKKKKUUULLLPPPKLLYYUPLLKUUKKPPKRUEWWKJJJKLLQJJLLKTUUUKPPJJ",
"YKKN:JJJKLL!3LLLKJJA:KKYUPWN:KKKLLLN:KEPHPUC3KKKYUUN<LPPRULV:UUU",
"PKT 3UUKLLK %PLKKKY 3LIPIKT :KKTJJQ :KPHPLY :KKYUUT :PPPKKI %UUI",
"IKKYUUKLLLTTPJJJKKIYUUPILKIQ~JLKKUYYLKHPLLKTKKT^UKTTPPJJJKTIPPTP",
"KLLRUKKLLJJJKPUUUPPPURTLLPPH/UUKKKUUUWKLLPPPJJQPPKKLPPKUUULJJQKT",
":KKYTTT:T%Y33:%33%I<T: : %    3 :::3g::<QeQ::Y3Y<TKQQQT%Y3K<333:"
};
