/* XPM */
static char *wall_mdrob1724681808[] = {
/* columns rows colors chars-per-pixel */
"64 64 136 2 ",
"   c #020101",
".  c #070A06",
"X  c #0A050A",
"o  c #0A0F0A",
"O  c #0E120D",
"+  c #10130F",
"@  c #151E0E",
"#  c #181F0F",
"$  c #151515",
"%  c #181617",
"&  c #131B12",
"*  c #181F17",
"=  c #181718",
"-  c #1C1C1B",
";  c #201C1F",
":  c #17210E",
">  c #18220E",
",  c #142313",
"<  c #1B2414",
"1  c #1F2917",
"2  c #1C221A",
"3  c #1C2A1A",
"4  c #202717",
"5  c #212A17",
"6  c #21221E",
"7  c #222B1A",
"8  c #273717",
"9  c #25321D",
"0  c #29361C",
"q  c #213C1E",
"w  c #2C3B1C",
"e  c #303F1E",
"r  c #252324",
"t  c #282427",
"y  c #242A22",
"u  c #2A2D25",
"i  c #2A2729",
"p  c #272928",
"a  c #2D2A2C",
"s  c #312D2E",
"d  c #273225",
"f  c #253F22",
"g  c #2D3C23",
"h  c #2D302B",
"j  c #2D3D2A",
"k  c #313D22",
"l  c #33322D",
"z  c #363F28",
"x  c #332D31",
"c  c #3A2D39",
"v  c #363233",
"b  c #393434",
"n  c #363B33",
"m  c #393B33",
"M  c #3B3539",
"N  c #3E3B3A",
"B  c #423E3F",
"V  c #30411F",
"C  c #274024",
"Z  c #2A4326",
"A  c #2C4429",
"S  c #2E482A",
"D  c #334422",
"F  c #384727",
"G  c #354923",
"H  c #384927",
"J  c #32442C",
"K  c #3A462B",
"L  c #314B2B",
"P  c #3C4A2A",
"I  c #3D502B",
"U  c #354332",
"Y  c #394735",
"T  c #374D32",
"R  c #3E4930",
"E  c #3D453A",
"W  c #41522E",
"Q  c #414F31",
"!  c #44433D",
"~  c #444C3D",
"^  c #445432",
"/  c #435831",
"(  c #48503D",
")  c #3F3D40",
"_  c #433D40",
"`  c #493F46",
"'  c #454242",
"]  c #494346",
"[  c #4C4B44",
"{  c #4D474A",
"}  c #4E494B",
"|  c #51474E",
" . c #514B4D",
".. c #465741",
"X. c #525347",
"o. c #55524C",
"O. c #5A564B",
"+. c #5B594D",
"@. c #4F4D50",
"#. c #544C51",
"$. c #5A4D56",
"%. c #5C4D59",
"&. c #565152",
"*. c #595356",
"=. c #5D5A54",
"-. c #5A5458",
";. c #5F5C5D",
":. c #615B52",
">. c #60515D",
",. c #625D5B",
"<. c #5D6351",
"1. c #616057",
"2. c #65625C",
"3. c #68645F",
"4. c #645F64",
"5. c #676160",
"6. c #6A6561",
"7. c #6D6A63",
"8. c #6E6D6A",
"9. c #706C62",
"0. c #716D69",
"q. c #777665",
"w. c #75746C",
"e. c #78756F",
"r. c #7E7C6B",
"t. c #7B7772",
"y. c #7B7972",
"u. c #7F797F",
"i. c #817D6F",
"p. c #837F70",
"a. c #858273",
"s. c #898175",
"d. c #919377",
"f. c #96987D",
"g. c #98987F",
"h. c #9D9C83",
/* pixels */
"8 8 8 8 8 8 D D I I D D I D I D D D D D 8 D D I I D I D D D D 8 8 8 8 D 8 D D I I I I I D I D 8 8 8 8 8 D 8 D P I I D I D D D D ",
"O.O.O.O.+.{ B { @.;.;.;.;.@.@.@._ w.w.+.{ B C 8 I r.f.q.u.u.+.O.O.O.+.+.O.{ B B _ _ { 2.2.u.u.2.u.2.2.O.{ _ f D I r.f.q.u.u.O.+.",
" .{ { {  . .{ _ O.+.w.w.w.O.+.w.w. .{ { _ { _ & D f.} { { { { +.O.+.} { { { { C { { } { { { { +.2.{ { { _ { B & D f. .{ { { +.} ",
"{ { {  .} { { { { { } { { { O. .} { { { { _ { i D 2.{ { { { } } }  .{ { { { { { {  .{ { { } +.{ { { { { { B { i 8 2.{ { { +. .{ ",
"B { B { { { { { { { { { { _ { _ { { { { { { { & D C B { { { *.f f _ { { { { { { { { { { { _ { _ { { { { { { { & D f B { { { *.f ",
"{ { { { { { { B { B { [ { { { { { { { { { { _ & D B { { { { f f f f _ { { { { { { _ { { { { { { { { { { { { B & D B { { *.C f f ",
"{ { C C B { { f { _ C C C { { { { { f C { { C & D B C C { B i i i i f f { { B C { B f f f { { { { { C C { { f   D _ f f f f f B ",
"i i i i & i &     & & & & i & i p i i i p & & D I 8 & & & & & i & i i i i @ & &     & & & i & i i i i i p &   D P   & & & i & i ",
"I D 8 8 8 8 D 8 D 8 8 8 8 G D 8 D D 8 8 D 8 G I I I 8 V 8 8 D 8 D Z 8 V 8 8 8 8 8 8 D 8 D D 8 D 8 8 8 8 D I I P I 8 D 8 G 8 D I ",
"O.O.{ _ f I I D w.} O.+.}  .} C i ) @.) 2.2.} 2. .r.r.2.i.2.2.2.{ f q C _ _ D P I r.2.2.2.2.f i f C _ B B C C f { { {  .O.O.O.O.",
" .{ } { B & I r.} { { 2.} } } { } a ) 2.} } } { { {  .{ { { { O.2.{ C B _ { & D w. .{ { { { { f i B { { { { _ f { { { { { { O.} ",
"{ { { { { p 8 2.{ { 2. .} } { o.} i f f 2.} } { { { { { {  .O.{ { {  .B { B & I 2.{ { +.{ { { _ f { { { { B { _ { { { { { +.} { ",
"C f _ { _ & 8 C { _ { { } { { { { { { *._ { { { { {  .{  .{ { _ { { f _ { _ i D 2. .{ { { { { { { { { { B { _ { { { _ _ { _ { f ",
"C [ { _ N & D C _ { _ { _ { { { { { *._ { _ _ { { ! { { { { f { | B z | { { & D B { { { { { { { { { { { { { _ { { { _ { ! { _ _ ",
"{ f _ { C & 8 C C _ { _ { _ { { { -.f f _ _ i } { f ' #.Y J ] _ B ` J ` | U 6 D C B { f f f { { { { { { B { { { { _ { _ _ _ f f ",
"i i i & & 8 D 8 & & & i i i & p i i i i & i i b r 3 & - $ - - 4 4 - - + + X : 1 @ O $ o $ $ % % $ $ $ O o   O     & & & & i & i ",
"8 8 8 8 8 8 D D 8 8 D D 8 D 8 D 8 D D D 0 j z ~ F 0 4 < 7 7 7 l u 4 ; 7 * 4 & 4 < < 5 5 < 5 > @ @ @ @ > @ < > > W V I D D D D D ",
"w.w.+. .{ { O.{ O.+.O.;.;.;.@.;.@.@.U <.7.o.#.] j 7 9 < +.! ! v l B l x l a r t s l u a l h l s s s s u r , > 0 D o.f.f.2.2.2.2.",
"O.+. .{ { { { C { {  .w.w.+.O.w.w.7.7.' ` { ` ` M $ < +.x s s x s s s s x s a r i t t i t u x a i i u a i r O 5 ;.r. .{ { { +.O.",
"} } { { { { { { { }  .{ { { O. .=.} [ ] ] { | v b ; 7 N s s x s s s s x s a a i i i i i a s i i i i a i a a = g @.w.{ { { @. .} ",
"f B { { { { { { { { { { { _ B { ] } _ { { { | M v + < 3 i x s s s s i s s a a i i 2 r r a i i s , , , r a i O 8 { _ { { { -.C C ",
"f f B { { { { { { B { { { { { B { { { { { #.#.M x $ 9 a x a i s s s s s s a a a i t t a t a r * r , i i r s O 8 _ { B { { C q C ",
"i i f f { { B C { B q C C { { { } } } } f C } ` f $ 0 v 2 3 2 i x s 4 4 i s a 2 a t a t t i r i , i , t s 3 @ 8 f _ { { _ i p p ",
"& i i i p & & &       & & &   6 2 a X   * a a & 2 0 P 0 $ $ * 4 4 6 ; ; + = O o X + o + + = $ - $ $ % % o + 8 8 & & i & & @ i i ",
"D 8 8 8 8 8 D 8 D D 8 8 D 8 D P P H w G 0 8 D 0 F F ^ ^ L F ^ ! ! ! ! K P F e F F K P P P P P H D 8 8 8 8 D 8 D 8 P I I I R D I ",
"O.O.O.O.O.O.{ B C D D N f.f.f.a.9.7.{ | Z _ _ ) i.y.t.y.6.5.-. .} { [ { Z A A ` ] ^ ^ ^ %.-.*.&.[ @.@.) @.w.2.2.B C & r.p.@.+.+.",
"O. . .{ { {  .{ _ & 8 r.O.O.O.*.&.:.2. . .Z ,.w.{ #.} #.#.#.#.o.X.} { { | Z ] #.A 2 ^ -.h.s.y.y.7.w.w.2.w.} } } { _ { { } { { { ",
"} { { { {  .{ { { i D +.{ O.O.+.=.=.:.o.$.#.:.:.#.} #.#.#.#. .#.O.| {  .#.| #.#.A 2 P a.$.#.7.*.&.=.} { } } { { { { { { { { { +.",
"{ -.*.f f f _ { _ & D O.}  . .o.,.L L  .&.*.*.=.&. .#. .#. .#._ { _ { @.{ | #.#.` 2 k U #.{ $. .&. .} { { *._ { { { { f _ _ { _ ",
"B C f B f { { B _ & I {  .{  .&.J L L L } &.&.&.&.#.#.] #.#. . .#.#.| | #.#.#.} ] * D ! | |  . .} } { { *.B { _ { { { _ _ { _ { ",
"C f { f { f _ { f & D _ { { [ } b v v v L L $.&.{ Z  .] Z Z Z  .} @.| @.Z Z @. .Z . G E k |  . . .{ { *.f f _ _ { { { _ { _ _ _ ",
"& p i i i i i & & D I D & i n u 7 M 2 v l x l 2 2 2 . . * * * a * a a a s s a * . G ^ . u a 2 v v N m p i i & i & &   & & & & i ",
"8 8 8 D 8 D D I I I I I D I ( P ^ D I H V P V w w g w 8 P w F D 0 D 0 g 0 8 P ^ / / / V I H w P D P D D 8 D D P I D I G D D D 8 ",
"O.O.O.+.O.{ _ B _ _ { 2.2.u.0.0.7.8.&.S S A { ] P / / a.6.6.6.6.Z x A C ] ] ] Z A A &.&.=.6.A v T ..w.+.{ _ f 8 I r.f.q.u.u.O.+.",
"O.O.} { { { { f { {  .{ { -. . .$.:.7.#.S { ] #.2 P t.$.} #.@.| #.Z s ` #.}  .#.] A #.&.&.#.&.S v  .{ { _ { B & D f.} { { { { O.",
" . .{ { { { { { } } { { { *.:.&.=.#.o.o.} { #.B 7 / 6.#.} +.| #.{ ` f #.#.#.#.] @.] o.&.#.#.@.] A #.{ { { _ { i D 2.{ { { {  .} ",
"C B { { { { { { { { { { { {  .&.*.&.#. .~ %.%.p K R 6.#.{ @.| | | #.| #.@.#.] #.] #.#.#.] ]  .} { { { { { { { & D f B { { { -.C ",
"C C B { { { { { { _ { { { {  .&.o.&.&.&.-.%.{ 6 F ' ' { -.} | | #.#.#.| #. . .#.] #. .#.]  .{ ] [ ' { { { { B & D _ { { { { C C ",
"i i q C { { B f { B C C f |  .#.*.#.A L $.$.U X K { U j A U l k | | | #.#.#.] #.#.#.#.] } ] ] ] ' n C f { { f & D B f f { B p i ",
"& i i p i & & &     & & & i 6 x x x s c c 2 X P ^ X - * - c p a a a a a x * * X *   X * * , * r y i p i i & & D H 8 & & & & @ i ",
"D D 8 D 8 8 8 8 8 8 D 8 D D Z W D k z k P ^ ^ ( ( w Q w Q w Q Q j 0 0 g z W w F e w W F R D Z 8 0 G 8 8 D 8 D I I I 8 D 8 8 D 8 ",
"{ f f f _ _ D I P r.2.2.2.2.f v J A ` { ` J A J #.#.| $.:.$.O.O.&.o.O.o.(  .B k w W F *.h.h.2.+.} ) @.) 2.2.} 2. .r.r.2.r.2.2.2.",
"2.{ q _ _ { & D w. .{ { { { { E c ` $.| #.#.] A #.#.#.| #.O.| ! $. .| { {  . .] * G 4.p.#.| | { _ p N 2.}  .{ { } { } { { { { +.",
"{ { { B { B & I 2.{ { O.{ { { ! U $.| $.#.` #.` #.#. .| #.| | | { {  . . .{  . .a ^ $.t.#.| @.} } i C C 2.{ { { { { } { { } +.{ ",
"{ { f _ { _ i D 2. .{ { { { { { | | | | ` #.` #.#. .` { { { | { B | ] { { {  .B 2 w #.` #.$.| | } { { -._ { { { { { } {  .{ { _ ",
"{ _ f { _ { & D B { { { { { { { | { | | #.| ` |  . .` ] B | | { { { { { { ] ] ] * g ] #.| >.%.{ } { *._ { _ _ { { _ { { { { C { ",
"{ _ f B B f & D f B | f C w } { { B { | ` | $.| | _ { B N j f f { ] | { [ ]  .Z 2 k U ` %.%.E { { *.f f B B i { { C _ { C C { { ",
"i i i & &   8 I D & i & u p i i i i u & - X ; X X & & & @ = $ & i @ i i s l * * k D p v a _ p a i i i i & i & &   & & p @ i i i ",
"D 8 8 D 8 D 8 I I I I I D I D 8 8 8 8 K g P e w Q V W V V P 8 V V 8 D 8 0 j w F k I R X.o.~ 8 D 8 D D D D D 8 D 8 8 8 8 D D D D ",
"O.O.O.O.O.{ B { 2.2.2. .+.O.O.O.O.+.O.{ | U z ^ V | d.d.=.[ =.=.=.q i C Z { | t.6.8.*.=.;.;.@.;.@.@._ w.w.O.{ B f 8 D 8 f.q.r.r.",
"O. .{ {  . .{ B { { { { { { *. .{ { { } { _ i Q =.q.] ! ! ' ' _ ! ' q i ] -.7.] &.#. .w.w.O.O.w.w.w.w.} { { B { _ & 8 f. .{ { { ",
" .{ {  . .{ { { { { { { { *. .{ { {  .{ { { i P ' :.B B B ' _ N N _ M f  . .{ { } }  .{ { { +.} } @.} } { { { B { i D 2.{ { { O.",
"C { B { { { { { { f _ _ { _ { *.f f f _ { _ & 8 { _ _ ] ! ' 9 j n N _ { { { { { { { { { { B _ { ' { _ { { { { { { & 8 f _ { { { ",
"C { { { { { { { { _ _ { B { _ C _ f { { _ _ & 8 _ { B { { f d h x b _ { { { { { { ' { { { { { _ { { { { { { { { B & D _ { { *.C ",
"B { f f B { { f { _ { _ B _ f { f { f _ { C & 8 C B { { _ i i i i i f f { { B f { B C C f { { { { { { { C C { { f & D B f f f f ",
"i i p i & i & &   & & & & i & i i i i p & & 8 8 & & i & & & i i & i i p i & & &       & & &   & & i     & i p & & 8 I D & & & i ",
"I D D D D D 8 D D D D D D D D D D 8 8 8 8 D 8 G 8 I I I I I D I D 8 8 8 8 8 D 8 D D 8 8 D 8 D D D D 8 D 8 8 D 8 D D H I D D I D ",
"_ N ] { f f f _ ! P I I @.@.@.@.@.@.@.) @.w.2.2.' C & r.u.} O.O.+.+.O.+.O.O.{ _ f D D N f.f.f.w.2.2.] ] f ) ) ) r.w.w.w.2.2.2.2.",
"i +.2.{ { f _ { f & P @.f.r.w.w.2.w.w.2.w.{ } } { B { { } } { { O.} } { { { } { _ & 8 r.+.o.O.{ { O.2.{ { f 2.r.{ ] ] {  .{ } _ ",
"+.{ { { { { { { f & D r.} { 2.} } } } { } { } { { { { { { { { O.} { } } {  .{ { { i D O.{ +.{  .O.{ { { { { ] B { B { { { { { i ",
"{ { { { { B { { B & 8 f { _ { { { { { { { *._ { { { { f _ _ { _ { *.*.f C f B { _ & D +.o.} { } { { { { { _ f { f { { { C } C { ",
"{ { { { B { { { { i 8 f ' { _ { { { { { -._ { _ { { { _ _ { _ { _ f f _ C { { B _ & I { } {  .{ { _ { { { f { _ { { { { { C { C ",
"f { { { { { { { { & 8 f C B { _ { { { *.f f B B { { { _ { _ _ _ f f { f { f _ { f & D _ } } { { f { { { B f B i & f f B f { C C ",
"i i p O i i & &   8 8 8 & & & i & i i i i i & i & &   & & & & i & i i i i i i & & D I D & p & i i & i & & &   & & &   & & p @ p "
};
