/* XPM */
static char *_7464cce94924f3ce21751f625b2d564RLQmRcOdu666rBG8[] = {
/* columns rows colors chars-per-pixel */
"64 64 174 2 ",
"   c #000000",
".  c #030B04",
"X  c #080A07",
"o  c #0C0E0C",
"O  c #061205",
"+  c #091406",
"@  c #0B1A00",
"#  c #071008",
"$  c #0C140B",
"%  c #0E1A0B",
"&  c #121B0C",
"*  c #120E14",
"=  c #151516",
"-  c #131B12",
";  c #181319",
":  c #1E1C1D",
">  c #201E1F",
",  c #0F270F",
"<  c #142605",
"1  c #172806",
"2  c #15220C",
"3  c #1A260E",
"4  c #152B0D",
"5  c #1B2C0D",
"6  c #1E320D",
"7  c #142314",
"8  c #192313",
"9  c #152D14",
"0  c #1D2A12",
"q  c #1E221B",
"w  c #1F291C",
"e  c #153413",
"r  c #1C3313",
"t  c #1B3B15",
"y  c #1B3519",
"u  c #1D3A1A",
"i  c #20350F",
"p  c #212F14",
"a  c #21231E",
"s  c #252E1D",
"d  c #273717",
"f  c #253A14",
"g  c #283C17",
"h  c #26341C",
"j  c #29351D",
"k  c #233B1D",
"l  c #2A3B1B",
"z  c #201722",
"x  c #221E22",
"c  c #242323",
"v  c #292527",
"b  c #252B22",
"n  c #292C26",
"m  c #2A2729",
"M  c #2C2A2B",
"N  c #312C2E",
"B  c #233120",
"V  c #2B3327",
"C  c #253F22",
"Z  c #2D3C21",
"A  c #2D322A",
"S  c #2C3F29",
"D  c #313D24",
"F  c #32322C",
"G  c #343D2B",
"H  c #2F2730",
"J  c #332D33",
"K  c #353333",
"L  c #393536",
"P  c #363A33",
"I  c #3A3B35",
"U  c #363338",
"Y  c #3A343B",
"T  c #3E3B3B",
"R  c #413D3D",
"E  c #1D4216",
"W  c #1F401A",
"Q  c #2A4017",
"!  c #21431D",
"~  c #2D411C",
"^  c #30431F",
"/  c #31481E",
"(  c #264422",
")  c #284523",
"_  c #2C4827",
"`  c #2E4A29",
"'  c #334422",
"]  c #354A24",
"[  c #384C27",
"{  c #37462A",
"}  c #3D4C2B",
"|  c #3D502B",
" . c #354231",
".. c #3E4436",
"X. c #3F403A",
"o. c #414F2F",
"O. c #444135",
"+. c #414A34",
"@. c #42423D",
"#. c #4A473D",
"$. c #45483F",
"%. c #4A4B3E",
"&. c #51603D",
"*. c #3F3D40",
"=. c #433D40",
"-. c #454342",
";. c #494546",
":. c #474942",
">. c #4A4945",
",. c #474148",
"<. c #4D474A",
"1. c #4E4A4A",
"2. c #524E44",
"3. c #504E4B",
"4. c #504C4D",
"5. c #504D4C",
"6. c #504E4D",
"7. c #514E4E",
"8. c #524E4F",
"9. c #504C4D",
"0. c #535345",
"q. c #535B44",
"w. c #515A41",
"e. c #585F46",
"r. c #53524D",
"t. c #53534B",
"y. c #5A564B",
"u. c #5A564C",
"i. c #5A564B",
"p. c #58584E",
"a. c #5D594F",
"s. c #5A5C4F",
"d. c #4F4D50",
"f. c #4F4D50",
"g. c #544B50",
"h. c #555251",
"j. c #5A5750",
"k. c #595257",
"l. c #595356",
"z. c #5C5A53",
"x. c #585C50",
"c. c #5B5B53",
"v. c #5F5C5E",
"b. c #5F5C5C",
"n. c #605F58",
"m. c #5B604F",
"M. c #5E6253",
"N. c #616356",
"B. c #65625C",
"V. c #65625C",
"C. c #69625C",
"Z. c #66695B",
"A. c #6E6E5E",
"S. c #6A7653",
"D. c #72735F",
"F. c #6A5F70",
"G. c #6B6C62",
"H. c #726F62",
"J. c #6E7063",
"K. c #737764",
"L. c #777766",
"P. c #757563",
"I. c #727863",
"U. c #75746C",
"Y. c #75746C",
"T. c #7E7C6B",
"R. c #7E7C6B",
"E. c #7F797F",
"W. c #7F797F",
"Q. c #7B8462",
"!. c #909579",
"~. c #92997B",
"^. c #96987D",
"/. c #96987D",
/* pixels */
"d d d d d d ' ' | | ' ' | ' | ' ' ' ' ' d ' ' | | ' | ' ' ' ' d d d d ' d ' ' | | | | | ' | ' d d d d d ' d ' | | | ' | ' ' ' ' ",
"y.y.y.y.y.<.=.<.d.v.v.v.v.d.d.d.=.U.U.y.<.=.C d | T.^.L.E.E.y.y.y.y.y.y.y.<.=.=.=.=.<.B.B.E.E.B.E.B.B.y.<.=.C ' | T.^.L.E.E.y.y.",
"4.<.<.<.4.4.<.=.y.y.U.U.U.y.y.U.U.4.<.<.=.<.=.- ' ^.4.<.<.<.<.y.y.y.4.<.<.<.<.C <.<.4.<.<.<.<.y.B.<.<.<.=.<.=.- ' ^.4.<.<.<.y.4.",
"<.<.<.4.4.<.<.<.<.<.4.<.<.<.y.4.4.<.<.<.<.=.<.m ' B.<.<.<.<.4.4.4.4.<.<.<.<.<.<.<.4.<.<.<.4.y.<.<.<.<.<.<.=.<.m d B.<.<.<.y.4.<.",
"=.<.=.<.<.<.<.<.<.<.<.<.<.=.<.=.<.<.<.<.<.<.<.- ' C =.<.<.<.k.C C =.<.<.<.<.<.<.<.<.<.<.<.=.<.=.<.<.<.<.<.<.<.- ' C =.<.<.<.k.C ",
"<.<.<.<.<.<.<.=.<.=.<.<.<.<.<.<.<.<.<.<.<.<.=.- ' =.<.<.<.<.C C C C =.<.<.<.<.<.<.=.<.<.<.<.<.<.<.<.<.<.<.<.=.- ' =.<.<.k.C C C ",
"<.<.C C =.<.<.C <.=.C C C <.<.<.<.<.C C <.<.C - ' =.C C <.=.m m m m C C <.<.=.C <.=.C C C <.<.<.<.<.C C <.<.C   ' =.C C C C C =.",
"m m m m - m -     - - - - m - m m m m m m - - ' | d - - - - - m - m m m m - - -     - - - m - m m m m m m -   ' |   - - - m - m ",
"| ' d d d d ' d ' d d d d ' ' d ' ' d d ' d ' | | | d ' d d ' d ' ' d ' d d d d d d ' d ' ' d ' d d d d ' | | | | d ' d ' d ' | ",
"y.y.<.=.C | | ' U.4.y.y.4.4.4.C m *.d.*.B.B.4.B.4.T.T.B.T.B.B.B.;.C C C =.=.' | | T.B.B.B.B.C m C C =.=.=.C C C <.<.<.4.y.y.y.y.",
"4.<.4.<.=.- | T.4.<.<.B.4.<.4.<.4.m *.B.4.4.<.<.<.<.4.<.<.<.<.y.B.<.C =.=.<.- ' U.4.<.<.<.<.<.C m =.<.<.<.<.=.C <.<.<.<.<.<.y.4.",
"<.<.<.<.<.m d B.<.<.B.4.<.4.<.4.4.m C C B.<.<.<.<.<.<.<.<.4.y.<.<.<.<.=.<.=.- | B.<.<.y.<.<.<.=.C <.<.<.<.=.<.=.<.<.<.<.<.y.4.<.",
"C C =.<.=.- d C <.=.<.<.<.<.<.<.<.<.<.k.=.<.<.<.<.<.4.<.4.<.<.=.<.<.C =.<.=.m ' B.4.<.<.<.<.<.<.<.<.<.<.=.<.=.<.<.<.=.=.<.=.<.C ",
"C <.<.=.=.- ' C =.<.=.<.=.<.<.<.<.<.k.=.<.=.=.<.<.=.<.<.<.<.C <.<.=.C <.=.<.- ' =.<.<.<.<.<.<.<.<.<.<.<.<.<.=.<.<.<.=.<.=.<.=.=.",
"<.C =.<.C - d C C =.<.=.<.=.<.<.<.k.C C =.=.m <.<.C =.<.C C  .T T -.( ;.=.V - ' C =.<.C C C <.<.<.<.<.<.=.<.<.<.<.=.<.=.=.=.C C ",
"m m m - - d ' d - - - m m m - m m m m m - m - -   - - A 9 V B l Z A M - -   0 ' ' - m - m m m m m m m - -   -     - - - - m - m ",
"d d d d d d ' ' d d ' ' d ' d ' d ' ' ' ' ' d 0 & 2 0 d ] ] [ w.w.' l ' d D p ' ' l | | ' | ' d d d d ' d ' d d | ' | ' ' ' ' ' ",
"U.U.y.4.<.<.y.<.y.y.y.v.v.v.d.v.d.d.=.U.U.y.O.J 9 3 l d ~.I.K.x.r.j.a.a.u.<.T -.z.s.q.%.y.y.y.y.y.y.y.<.=.C d | ' d.^.^.B.B.B.B.",
"y.y.4.<.<.<.<.C <.<.4.U.U.y.y.U.U.U.U.4.<.1.I =.U $ r !.1.>.>.r.r.r.4.1.4.1.<.T -.@.@.$.1.<.k.4.<.<.<.4.<.=.- ' v.T.4.<.<.<.y.y.",
"4.4.<.<.<.<.<.<.<.4.4.<.<.<.y.4.4.4.4.1.<.;.;.Y -.c l n.;.>.>.1.1.4.4.4.4.<.<.<.;.;.-.:.:.4.4.<.<.<.4.<.<.<.m | d.U.<.<.<.4.4.4.",
"C =.<.<.<.<.<.<.<.<.<.<.<.=.=.<.=.<.;.1.<.;.;.-.-.$ f k R >.>.1.1.1.1.1.1.1.<.<.<.>.@.O.:.T 1.k.C C C =.<.=.- d <.=.<.<.<.k.C C ",
"C C =.<.<.<.<.<.<.=.<.<.<.<.<.=.<.<.1.<.<.;.;.-.T $ ~ T >.>.h.;.1.1.1.1.4.4.;.4.3.<.>.-.-.$. .( =.C <.<.=.=.- d =.<.=.<.<.C C C ",
"m m C C <.<.=.C <.=.C C C <.<.<.<.<.<.<.C k ;.-.u $ ~ R ( ) ) ( ( <.1.-.) 4.;.` _ ( >.:.@.P E  .C <.C =.<.C - d C =.<.<.=.m m m ",
"- m m m m - - -       - - -   - - m     - v c $ $ r [ ^ - w w b b b - - 7 X o b w 7 n % b b 0 b m m m m - - d d - - m - - - m m ",
"' d d d d d ' d ' ' d d ' d ' ' ' ' d ' d f l 5 l l ] [ { l d 6 ~ f f d l ^ o.&.} ] / f ~ f f ' ' d d d d ' d ' d | | | | | ' | ",
"y.y.y.y.y.y.<.=.C ' ' *.^.^.^.U.G.B.;.;.k Y U U P.V.G.Z.t.T y u u I P k 6 Q e.S.w.m.M.W b ! ! ..$.d.d.*.d.U.B.B.=.C - T.E.4.y.y.",
"y.4.4.<.<.<.4.<.=.- d T.y.y.y.<.<.u.B.<.;.k j.A.-.<.-.$.%.p.=.u I I T L # 6 Q.K K X.@.-.! b @.r.N.U.U.B.U.<.4.4.<.=.<.<.4.<.<.<.",
"4.<.<.<.<.4.<.<.<.m ' y.<.y.<.<.y.<.<.<.<.;.3.j.1.;.-.:.=.-.-.-.I R L R : f 0.P I X.@.-.T ! >.1.<.4.4.<.<.<.<.<.<.<.<.<.<.<.<.y.",
"<.k.k.C C C =.<.=.- ' y.4.4.<.<.<.<.<.<.<.<.<.<.1.;.T -.T -.-.@.T R @.R O f e F T O.@.-.:.>.1.<.<.<.<.<.<.k.=.<.<.<.<.C =.=.<.=.",
"=.C C =.C <.<.=.=.- | <.4.<.4.;.<.<.<.<.R ;.R 1.;.;.;.-.@.-.@.@.R R R K O f K T O.O.$.-.>.>.<.<.1.4.<.<.k.=.<.=.<.<.<.=.=.<.=.<.",
"C C <.C <.C =.<.C - ' =.<.<.<.T S =.<.<.k ;.R k k k -.-.-.-.@.t t @.@.y # g K t t t t :.>.<.<.;.;.g.<.k.C C =.=.<.<.<.=.<.=.=.=.",
"- m m m m m m - - ' | ' - m - A M - v &     % % % % c $ a a q q q q + + g / 5 $ % 8 w b M M J Y U b m m m m - m - -   - - - - m ",
"d d d ' d ' ' | | | | | ' | ' G l d d ~ f ~ f f f f ~ ~ 6 Q Q 6 6 g 6 g / / / 5 l 0 0 j D l Z ..+.+.' ' d ' ' | | ' | ' ' ' ' d ",
"y.y.y.y.y.<.=.=.=.=.<.B.B.E.E.>.R u [ [ l G.;.0.0.>.>.>.u a P :.P x.s.-.s.-.D.P.j.H.j.r.%.0.r.:.I Z.U.y.<.=.C d | T.^.L.E.E.y.y.",
"y.y.4.<.<.<.<.C <.<.4.<.<.<.<.F T K $ ] P.;.-.-.z.;.-.>.-.:.a P x.-.-.@.R R R -.=.=.=.T =.;.2.G.J.;.<.<.=.<.=.- ' ^.4.<.<.<.<.y.",
"4.4.<.<.<.<.<.<.<.4.<.<.<.4.y.m K Y : 5 z.=.=.z.;.-.;.-.:.:.a t t s.@.@.R R R R R =.=.;.;.;.0.>.>.;.<.<.<.=.<.m ' B.<.<.<.<.4.4.",
"C =.<.<.<.<.<.<.<.<.<.<.<.=.<.v M J . 5 y =.L -.-.-.-.-.-.-.$.$.r.I @.O.T T R R R =.-.-.;.T ;.R ;.<.<.<.<.<.<.- ' C =.<.<.<.k.C ",
"C C =.<.<.<.<.<.<.=.<.<.<.<.<.<.m J X l y L =.L -.L -.-.-.:.$.t.I $.I K I T R K R L -.-.;.;.;.;.<.<.<.<.<.<.=.- ' =.<.<.<.<.C C ",
"m m C C <.<.=.C <.=.C C C <.<.<.m s o 0 y y U =.L -.T ;.:.%.t.E E I I q F T R y R L u u k ;.<.<.<.<.C C <.<.C - ' =.C C <.=.m m ",
"- m m m m - - -     - - - m - m m s p l 5 $ # # : > c & s s s s s 2 a % - > #     $ $ $ $ v - M A m m m m - - ' | d - - - - - m ",
"' ' d ' d d d d d d ' d ' ' d ' d h h l d 3 3 d d 3 j 3 V h h h s 0 2 2 5 5 f 5 g 5 5 f f ' ' l ' ' d d ' d ' | | | d ' d d ' d ",
";.C C C =.=.' | | T.B.B.B.B.C m C C G $.T %.%.#.1.>.O.m 7   C.F.Y R Y J 9 ~ ~ f G.-.2.2.<.<.g.P m *.d.*.B.B.4.B.4.T.T.B.T.B.B.B.",
"B.<.C =.=.<.- ' U.4.<.<.<.<.<.C m =.@.T e T T T V.n.R Y H Y Y Y Y Y Y U J . ~ A.=.R =.z.;.;.<.<.4.m *.B.4.4.<.<.<.<.4.<.<.<.<.y.",
"<.<.<.=.<.=.- | B.<.<.y.<.<.<.=.C <.;.=.R T T T Y U U U U U Y Y Y Y Y K L = < r.T T j.-.=.<.<.4.4.m C C B.<.<.<.<.<.<.<.<.4.y.<.",
"<.<.C =.<.=.m ' B.4.<.<.<.<.<.<.<.<.<.-.R T Y Y Y Y U U U U 9 J J J =.J m . < 9 Y N T R =.<.<.<.<.<.<.k.=.<.<.<.<.<.4.<.4.<.<.=.",
"<.=.C <.=.<.- ' =.<.<.<.<.<.<.<.<.<.<.-.T L J T T Y J Y J U M J J =., 7 q . i 9 N L M R =.<.<.<.<.<.k.=.<.=.=.<.<.=.<.<.<.<.C <.",
"<.=.C =.=.C - ' C =.<.C C C <.<.<.<.<.<.M m Y T T J Y J J J w = * * * ; $ + 1 9 4 c M =.<.=.<.<.<.k.C C =.=.m <.<.C =.<.C C <.<.",
"m m m - -   d | ' - m - m m m m m m m - -   $     . . . . z $ 2 @ 4 3 5 0 3 < 3 $ X - m m m - m m m m m - m - -   - - m - m m m ",
"' d d ' d ' d | | | | | ' | ' d d d d ' d ' d l ] f d 0 h j D T U J x j.b.O.F F & d ' ' d ' d ' d ' ' ' ' ' d ' d d d d ' ' ' ' ",
"y.y.y.y.y.<.=.<.B.B.B.4.y.y.y.y.y.y.y.<.=.C d | ' :.P.H.g.l.b.b.z.3.>.J Y T F <.y.y.y.v.v.v.d.v.d.d.=.U.U.y.<.=.C d ' d ^.L.T.T.",
"y.4.<.<.4.4.<.=.<.<.<.<.<.<.k.4.<.<.<.4.<.=.- ' v.T.4.<.-.,.3.;.-.-.M m <.<.<.C <.<.4.U.U.y.y.U.U.U.U.4.<.<.=.<.=.- d ^.4.<.<.<.",
"4.<.<.4.4.<.<.<.<.<.<.<.<.k.4.<.<.<.4.<.<.<.m | d.U.<.<.<.4.4.4.4.4.<.<.<.<.<.<.<.4.4.<.<.<.y.4.4.4.4.<.<.<.<.=.<.m ' B.<.<.<.y.",
"C <.=.<.<.<.<.<.<.C =.=.<.=.<.k.C C C =.<.=.- d <.=.<.<.<.k.C C C =.<.<.<.<.<.<.<.<.<.<.<.=.=.<.=.<.=.<.<.<.<.<.<.- d C =.<.<.<.",
"C <.<.<.<.<.<.<.<.=.=.<.=.<.=.C =.C <.<.=.=.- d =.<.=.<.<.C C C C C =.<.<.<.<.<.<.=.<.<.<.<.<.=.<.<.<.<.<.<.<.<.=.- ' =.<.<.k.C ",
"=.<.C C =.<.<.C <.=.<.=.=.=.C <.C <.C =.<.C - d C =.<.<.=.m m m m m C C <.<.=.C <.=.C C C <.<.<.<.<.<.<.C C <.<.C - ' =.C C C C ",
"m m m m - m - -   - - - - m - m m m m m - - d d - - m - - - m m - m m m m - - -       - - -   - - m     - m m - - d | ' - - - m ",
"| ' ' ' ' ' d ' ' ' ' ' ' ' ' ' ' d d d d ' d ' d | | | | | ' | ' d d d d d ' d ' ' d d ' d ' ' ' ' d ' d d ' d ' ' | | ' ' | ' ",
"=.*.;.;.C C C =.=.| | | d.d.d.d.d.d.d.*.d.U.B.B.=.C - T.E.4.y.y.y.y.y.y.y.y.<.=.C ' ' *.^.^.^.U.B.B.;.;.C *.*.*.T.U.U.U.B.B.B.B.",
"m y.B.<.<.C =.<.C - | d.^.T.U.U.B.U.U.B.U.<.4.4.<.=.<.<.4.<.<.<.y.4.4.<.<.<.4.<.=.- d T.y.y.y.<.<.y.B.<.<.C B.T.;.;.;.<.4.<.<.=.",
"y.<.<.<.<.<.<.<.C - ' T.<.<.B.4.<.4.4.<.<.<.<.<.<.<.<.<.<.<.<.y.4.<.<.<.<.4.<.<.<.m ' y.<.y.<.4.y.<.<.<.<.;.;.=.<.=.<.<.<.<.<.m ",
"<.<.<.<.<.=.<.<.=.- d C <.=.<.<.<.<.<.<.<.k.=.<.<.<.<.C =.=.<.=.<.k.k.C C C =.<.=.- ' y.4.4.<.4.<.<.<.<.<.=.C <.C <.<.<.C 4.C <.",
"<.<.<.<.=.<.<.<.<.m d C =.<.=.<.<.<.<.<.k.=.<.=.<.<.<.=.=.<.=.<.=.C C =.C <.<.=.=.- | <.4.<.4.<.<.=.<.<.<.C <.=.<.<.<.<.<.C <.C ",
"C <.<.<.<.<.<.<.<.- d C C =.<.=.<.<.<.k.C C =.=.<.<.<.=.<.=.=.=.C C <.C <.C =.<.C - ' =.<.<.<.<.C <.<.<.=.C =.m - C C =.C <.C C ",
"m m m $ m m - -   d d d - - - m - m m m m m - m - -   - - - - m - m m m m m m - - ' | ' - m - m m - m - - -   - - -   - - m - m "
};
